<svg xmlns="http://www.w3.org/2000/svg" xmlns:xlink="http://www.w3.org/1999/xlink" version="1.1" width="35pt" height="51pt" viewBox="0 0 35 51">
<path transform="matrix(1,0,0,-1,0,51)" d="M35 12.667122V42.923814C35 44.267625 34.473218 45.556398 33.535535 46.506616 32.59785 47.456838 31.326083 47.99066 30 47.99066H22.5L21.085 49.465116C20.619029 49.950815 20.061682 50.3369 19.445916 50.600534 18.830149 50.864168 18.168469 51 17.5 51 16.831532 51 16.169852 50.864168 15.554085 50.600534 14.938319 50.3369 14.380971 49.950815 13.915 49.465116L12.5 47.99066H5C3.673918 47.99066 2.402148 47.456838 1.464466 46.506616 .526784 45.556398 0 44.267625 0 42.923814V12.667122C0 11.323311 .526784 10.034538 1.464466 9.08432 2.402148 8.134102 3.673918 7.600273 5 7.600273H10V5.066849H16.25V0H18.75V5.066849H25V7.600273H30C31.326083 7.600273 32.59785 8.134102 33.535535 9.08432 34.473218 10.034538 35 11.323311 35 12.667122ZM20.7075 46.224866C20.94047 45.981985 21.219138 45.788908 21.527022 45.65706 21.834906 45.525209 22.165753 45.45726 22.5 45.457239H30C30.663043 45.457239 31.298928 45.190324 31.767769 44.715215 32.23661 44.240106 32.5 43.59572 32.5 42.923814V20.851349C32.132284 21.141249 31.74602 21.406153 31.34375 21.644316 29.0625 22.989565 25.7625 23.688788 21.865002 21.358036 18.655003 19.438967 15.63625 18.92088 12.3525 18.849946 10.88875 18.818276 9.392501 18.875283 7.788751 18.937352L7.12625 18.962685C5.585121 19.030135 4.042477 19.055476 2.5 19.038685V42.922548C2.5 43.59445 2.763393 44.23884 3.232234 44.713949 3.701074 45.189058 4.336959 45.45597 5 45.45597H12.5C12.834247 45.455995 13.165094 45.52394 13.472979 45.655794 13.780863 45.78764 14.059529 45.980718 14.2925 46.2236L15.7075 47.69805C15.940486 47.940904 16.21916 48.13394 16.527043 48.26576 16.834925 48.39758 17.165766 48.465494 17.5 48.465494 17.834235 48.465494 18.165076 48.39758 18.472958 48.26576 18.78084 48.13394 19.059515 47.940904 19.2925 47.69805L20.7075 46.224866Z" fill="#94080d" fill-rule="evenodd"/>
</svg>
