<svg xmlns="http://www.w3.org/2000/svg" xmlns:xlink="http://www.w3.org/1999/xlink" version="1.1" width="63.004274pt" height="72pt" viewBox="0 0 63.004274 72">
<path transform="matrix(1,0,0,-1,1.004028,68)" d="M62 46C62.000219 42.966127 60.851266 40.044775 58.78437 37.823884 56.717477 35.602994 53.886075 34.247426 50.86 34.03L44.758005 27.93C46.468004 25.036 47.238 21.196 47.615999 16.925999 47.999998 12.587997 48 7.515999 48 2.07V0H44V2C44 7.528 44.000005 12.43 43.632005 16.571999 43.310007 20.199997 42.722 23.026001 41.746 25.078 39.351999 25.397999 37.166 26.601998 35.294 28.085999 33.086 29.834 31.122 32.116 29.506 34.316 27.954447 36.44713 26.547942 38.68016 25.296002 41 22.608002 39.14 18.986 38 15 38 6.716 38 0 42.924 0 49 0 54.586 5.675999 59.2 13.029999 59.906 15.593999 64.616 22.67 68 31 68 40.416 68 48.232 63.674 49.738 57.998L50 58C53.1826 58 56.234849 56.735719 58.485284 54.485284 60.735719 52.234846 62 49.1826 62 46ZM38.054 44.854C35.74671 44.280466 33.3775 43.99363 31 44 30.132 44 29.276 44.036005 28.439999 44.108L28.287999 43.892C28.503998 43.475999 28.788002 42.938005 29.136002 42.318 30.279313 40.260145 31.553948 38.278039 32.952 36.384V36.676C35.162 36.676 37.482 37.87 39.406 39.292 39.553998 39.4 39.697999 39.508 39.836 39.618 38.839967 41.199609 38.229558 42.993158 38.054 44.854ZM42.505998 36.628C43.524114 35.812574 44.668489 35.168779 45.893999 34.722L40.654 29.481999C39.724 29.857998 38.762 30.442002 37.776 31.222 37.068906 31.78778 36.39886 32.39837 35.77 33.05 38.136 33.662 40.230005 34.927999 41.782 36.072 42.034 36.258 42.275999 36.444 42.505998 36.628Z" fill="#94080d" fill-rule="evenodd"/>
<path transform="matrix(1,0,0,-1,0,72.00106)" d="M19.008 27.997057C20.334082 27.998118 21.60543 28.52592 22.542363 29.464354 23.479294 30.402787 24.005063 31.674977 24.004002 33.00106 24.002942 34.32714 23.475138 35.59849 22.536705 36.535425 21.598273 37.472356 20.326083 37.99812 19 37.99706 17.673918 37.995996 16.402569 37.468198 15.465637 36.529767 15.001716 36.0651 14.63386 35.513608 14.383072 34.90678 14.132284 34.29995 14.003474 33.64967 14.004 32.99306 14.004525 32.33645 14.134375 31.686375 14.386133 31.079947 14.637892 30.47352 15.00663 29.922619 15.471294 29.458697 16.409728 28.521765 17.681918 27.995997 19.008 27.997057ZM5.007999 19.99706C6.334082 19.998122 7.605431 20.52592 8.542362 21.464354 9.479294 22.402787 10.00506 23.674977 10.004 25.001059 10.002939 26.32714 9.475137 27.59849 8.536705 28.535422 7.598273 29.472353 6.326082 29.998118 5 29.997057 3.673918 29.995997 2.402569 29.468197 1.465637 28.529765 .528705 27.591332 .002939 26.319142 .004 24.99306 .005061 23.666977 .532862 22.395628 1.471294 21.458697 2.409726 20.521765 3.681917 19.996 5.007999 19.99706ZM44.004 25.001059C44.004529 24.344449 43.875719 23.694165 43.624929 23.087336 43.374139 22.480507 43.006284 21.929018 42.542364 21.464354 42.07844 20.99969 41.52754 20.630949 40.921113 20.37919 40.314687 20.127432 39.664609 19.997586 39.008 19.99706 37.681917 19.996 36.409727 20.521765 35.471296 21.458697 34.532865 22.395628 34.005064 23.666977 34.004 24.99306 34.003477 25.64967 34.132284 26.29995 34.38307 26.906779 34.63386 27.513607 35.001718 28.0651 35.465639 28.529765 36.40257 29.468197 37.673917 29.995997 39 29.997057 40.326086 29.998118 41.598276 29.472353 42.536706 28.535422 43.475137 27.59849 44.00294 26.32714 44.004 25.001059ZM18 26.001059C19.060866 26.001059 20.078282 25.579632 20.828427 24.829485 21.578572 24.079339 22 23.061924 22 22.001059V18.001059H26C27.060866 18.001059 28.078282 17.579634 28.828427 16.829489 29.578572 16.079344 30 15.061924 30 14.001059 30 12.940193 29.578572 11.922773 28.828427 11.172628 28.078282 10.422483 27.060866 10.001059 26 10.001059H18C16.939135 10.001059 15.92172 10.422483 15.171574 11.172628 14.421428 11.922773 14 12.940193 14 14.001059V22.001059C14 23.061924 14.421428 24.079339 15.171574 24.829485 15.92172 25.579632 16.939135 26.001059 18 26.001059ZM8 14.001059C8 15.061924 7.578572 16.079344 6.828426 16.829489 6.078281 17.579634 5.060866 18.001059 4 18.001059 2.939134 18.001059 1.921718 17.579634 1.171573 16.829489 .421427 16.079344 0 15.061924 0 14.001059V4.00106C0 2.940193 .421427 1.922775 1.171573 1.17263 1.921718 .422485 2.939134 .00106 4 .00106H12C13.060866 .00106 14.07828 .422485 14.828426 1.17263 15.578572 1.922775 16 2.940193 16 4.00106 16 5.061928 15.578572 6.079344 14.828426 6.829489 14.07828 7.579634 13.060866 8.001059 12 8.001059H8V14.001059ZM40 18.001059C38.939134 18.001059 37.92172 17.579634 37.171575 16.829489 36.42143 16.079344 36 15.061924 36 14.001059V8.001059H32C30.939135 8.001059 29.921719 7.579634 29.171574 6.829489 28.421429 6.079344 28 5.061928 28 4.00106 28 2.940193 28.421429 1.922775 29.171574 1.17263 29.921719 .422485 30.939135 .00106 32 .00106H40C41.060869 .00106 42.07828 .422485 42.828428 1.17263 43.57857 1.922775 44 2.940193 44 4.00106V14.001059C44 15.061924 43.57857 16.079344 42.828428 16.829489 42.07828 17.579634 41.060869 18.001059 40 18.001059Z" fill="#94080d"/>
</svg>
