<svg xmlns="http://www.w3.org/2000/svg" xmlns:xlink="http://www.w3.org/1999/xlink" version="1.1" width="50.27848pt" height="50pt" viewBox="0 0 50.27848 50">
<path transform="matrix(1,0,0,-1,0,50)" d="M14.052991 42.1875C13.116125 42.1875 12.491548 41.25 12.491548 40.625V32.8125H9.368661V40.625C9.368661 41.5625 8.744083 42.1875 7.807217 42.1875 6.870351 42.1875 6.245774 41.25 6.245774 40.625V32.8125H3.122887V40.625C3.122887 41.5625 2.49831 42.1875 1.561443 42.1875 .624577 42.1875 0 41.25 0 40.625V30.3125C0 27.5 2.186021 25.3125 4.68433 25V3.125C4.68433 1.25 5.933485 0 7.807217 0 9.680949 0 10.930104 1.25 10.930104 3.125V25C13.428413 25.3125 15.614434 27.5 15.614434 30.3125V40.625C15.614434 41.25 14.989857 42.1875 14.052991 42.1875ZM20.298766 40.625V21.875H23.421652V3.125C23.421652 1.25 24.670807 0 26.544539 0 28.41827 0 29.667426 1.25 29.667426 3.125V50C24.358517 50 20.298766 45.9375 20.298766 40.625ZM42.158975 43.75C37.786935 43.75 34.351758 39.0625 34.351758 33.4375 34.039468 29.6875 35.9132 26.25 39.036088 24.0625V3.125C39.036088 1.25 40.28524 0 42.158975 0 44.032709 0 45.28186 1.25 45.28186 3.125V24.0625C48.404748 26.25 50.27848 29.6875 49.96619 33.4375 49.96619 39.0625 46.531015 43.75 42.158975 43.75Z" fill="#94080d"/>
</svg>
