<svg xmlns="http://www.w3.org/2000/svg" xmlns:xlink="http://www.w3.org/1999/xlink" version="1.1" width="50pt" height="49.460786pt" viewBox="0 0 50 49.460786">
<path transform="matrix(1,0,0,-1,0,52.92157)" d="M18.318182 49.46069C14.022728 49.483613 9.840909 45.312219 11.75 40.13236H4.545455C3.339925 40.13236 2.183771 39.64941 1.331333 38.789754 .478895 37.930097 0 36.764154 0 35.548414V30.964467C0 30.356598 .239447 29.773627 .665666 29.343798 1.091885 28.913969 1.669963 28.672493 2.272727 28.672493H22.727272V35.548414H27.272728V28.672493H47.727273C48.330038 28.672493 48.908117 28.913969 49.334337 29.343798 49.760557 29.773627 50 30.356598 50 30.964467V35.548414C50 36.764154 49.521104 37.930097 48.668668 38.789754 47.816228 39.64941 46.660078 40.13236 45.454545 40.13236H38.25C40.909093 47.627115 30.90909 52.92157 26.295454 46.458208L25 44.716306 23.704546 46.504045C22.272728 48.5439 20.295456 49.43777 18.318182 49.46069ZM18.181818 44.716306C20.204546 44.716306 21.227272 42.240976 19.795454 40.79703 18.363636 39.35309 15.909091 40.384477 15.909091 42.42433 15.909091 43.0322 16.148539 43.615175 16.574759 44.045003 17.000977 44.47483 17.579054 44.716306 18.181818 44.716306ZM31.818182 44.716306C33.840909 44.716306 34.863637 42.240976 33.431818 40.79703 32 39.35309 29.545454 40.384477 29.545454 42.42433 29.545454 43.0322 29.784903 43.615175 30.21112 44.045003 30.63734 44.47483 31.215416 44.716306 31.818182 44.716306ZM2.272727 26.38052V8.044731C2.272727 6.828991 2.751622 5.663048 3.60406 4.803391 4.456498 3.943737 5.612652 3.460785 6.818182 3.460785H43.181818C44.38735 3.460785 45.5435 3.943737 46.39594 4.803391 47.248376 5.663048 47.727273 6.828991 47.727273 8.044731V26.38052H27.272728V8.044731H22.727272V26.38052H2.272727Z" fill="#94080d"/>
</svg>
