<svg xmlns="http://www.w3.org/2000/svg" xmlns:xlink="http://www.w3.org/1999/xlink" version="1.1" width="15.587006pt" height="15.587006pt" viewBox="0 0 15.587006 15.587006">
<path transform="matrix(1,0,0,-1,.149506,15.587006)" d="M7.718753 15.587006C6.192129 15.587006 4.699788 15.134309 3.430446 14.286161 2.161104 13.438015 1.171772 12.232511 .587558 10.822094 .003344 9.411676-.149513 7.859693 .148317 6.362402 .446147 4.865111 1.181286 3.489761 2.260773 2.410275 3.34026 1.330789 4.715609 .59565 6.2129 .29782 7.710191-.00001 9.262174 .152847 10.672591 .737061 12.083008 1.321275 13.288512 2.310606 14.13666 3.579948 14.984807 4.849291 15.437504 6.341631 15.437504 7.868256 15.435342 9.914732 14.621425 11.876771 13.174347 13.323849 11.727268 14.770927 9.76523 15.584845 7.718753 15.587006ZM7.718753 1.337006C6.426994 1.337006 5.164244 1.720057 4.090185 2.437719 3.016127 3.155382 2.179 4.175425 1.684665 5.368855 1.19033 6.562284 1.06099 7.875501 1.312999 9.142439 1.565009 10.409378 2.187051 11.573135 3.100462 12.486547 4.013874 13.399959 5.177631 14.021999 6.44457 14.27401 7.711508 14.526019 9.024725 14.396679 10.218155 13.902344 11.411585 13.408009 12.431626 12.570883 13.149289 11.496824 13.866952 10.422766 14.250004 9.160015 14.250004 7.868256 14.248039 6.136663 13.559297 4.476555 12.334875 3.252134 11.110454 2.027713 9.450346 1.33897 7.718753 1.337006ZM8.906254 4.305756C8.906254 4.148283 8.843699 3.99726 8.732348 3.88591 8.620998 3.774561 8.469975 3.712006 8.312504 3.712006 7.997559 3.712006 7.695514 3.837117 7.472815 4.059816 7.250115 4.282516 7.125003 4.584561 7.125003 4.899506V7.868256C6.967531 7.868256 6.816509 7.930811 6.705159 8.042161 6.593809 8.153511 6.531253 8.304533 6.531253 8.462006 6.531253 8.619478 6.593809 8.7705 6.705159 8.88185 6.816509 8.9932 6.967531 9.055756 7.125003 9.055756 7.439948 9.055756 7.741993 8.930644 7.964693 8.707945 8.187392 8.485245 8.312504 8.183201 8.312504 7.868256V4.899506C8.469975 4.899506 8.620998 4.83695 8.732348 4.725601 8.843699 4.614251 8.906254 4.463228 8.906254 4.305756ZM6.531253 11.133881C6.531253 11.31003 6.583488 11.482223 6.681351 11.628685 6.779214 11.775147 6.918311 11.889301 7.081051 11.956711 7.243792 12.02412 7.422867 12.041758 7.595631 12.007393 7.768395 11.973028 7.927089 11.888204 8.051645 11.763648 8.176201 11.639091 8.261025 11.480398 8.29539 11.307633 8.329756 11.134869 8.312118 10.955793 8.244708 10.793053 8.177299 10.630313 8.063146 10.491216 7.916683 10.393353 7.77022 10.29549 7.598027 10.243256 7.421878 10.243256 7.18567 10.243256 6.959136 10.33709 6.792111 10.504114 6.625087 10.671139 6.531253 10.897673 6.531253 11.133881Z"/>
</svg>
