<svg xmlns="http://www.w3.org/2000/svg" xmlns:xlink="http://www.w3.org/1999/xlink" version="1.1" width="50pt" height="51pt" viewBox="0 0 50 51">
<path transform="matrix(1,0,0,-1,0,51)" d="M50 45.645V50.235L45.7346 50.745C45.497636 50.745 44.07583 51 41.70616 51 31.990523 51 24.881518 47.94 20.85308 42.585 17.772513 44.625 13.507109 45.9 8.530806 45.9 6.161137 45.9 4.502369 45.645 4.502369 45.645L0 44.88 .236967 40.545C.473934 32.895 4.028437 18.36 16.350712 18.36H16.824645V9.689999C7.819905 8.414997 .236967 5.100002 .236967 5.100002V0H47.630334V5.100002C47.630334 5.100002 40.047395 8.414997 31.042654 9.689999V17.850003C45.971567 18.105 50 36.21 50 45.645ZM23.933651 10.200001H21.563982V24.480002C21.563982 24.480002 21.090048 33.15 14.454976 33.15 14.454976 33.15 18.009478 31.11 18.957345 23.715 18.009478 23.460001 17.061612 23.46 16.350712 23.46 5.450237 23.46 4.976303 40.545 4.976303 40.545 4.976303 40.545 6.398104 40.8 8.530806 40.8 13.033175 40.8 20.379147 39.78 22.511849 32.894998 23.696682 44.37 35.78199 45.9 41.70616 45.9 43.838865 45.9 45.260667 45.645 45.260667 45.645 45.260667 45.645 45.260667 22.695 30.331755 22.695H28.672987C28.672987 27.795 33.412324 35.445 33.412324 35.445 26.303318 32.894998 26.303318 22.95 26.303318 22.95V10.200001H23.933651Z" fill="#94080d"/>
</svg>
