<svg xmlns="http://www.w3.org/2000/svg" xmlns:xlink="http://www.w3.org/1999/xlink" version="1.1" width="67pt" height="83pt" viewBox="0 0 67 83">
<path transform="matrix(1,0,0,-1,0,83)" d="M43.807695 67.43689C48.07733 67.43689 51.538465 70.92076 51.538465 75.218448 51.538465 79.516139 48.07733 83 43.807695 83 39.538057 83 36.076925 79.516139 36.076925 75.218448 36.076925 70.92076 39.538057 67.43689 43.807695 67.43689ZM18.31065 31.533127 15.926995 25.936894H5.153846C2.307957 25.936894 0 23.613778 0 20.749192 0 17.884606 2.307957 15.561485 5.153846 15.561485H17.627764C20.728125 15.561485 23.519255 17.416092 24.73202 20.277436L26.147719 23.604046 24.42923 24.625378C21.639712 26.283822 19.587838 28.73825 18.31065 31.533127ZM61.846155 46.687704H54.754785L50.55762 55.320367C48.5444 59.462419 44.848127 62.49074 40.60748 63.578538L29.159497 67.00566C24.601565 68.10805 19.855193 67.094829 16.139592 64.227008L9.750433 59.297063C7.490794 57.554319 7.06238 54.299036 8.796971 52.02455 10.531563 49.75007 13.763991 49.323705 16.02202 51.064828L22.4144 55.994768C23.649712 56.949628 25.223246 57.29169 26.484328 56.990159L28.851876 56.281709 22.818654 42.114419C20.786105 37.335248 22.607668 31.737389 27.054472 29.094906L40.741159 20.961564 36.316904 6.739151C35.466516 4.005875 36.978849 1.095901 39.694284 .239929 40.208055 .077812 40.72666 0 41.237215 0 43.42921 0 45.461755 1.421753 46.152696 3.639496L51.24856 20.022912C52.200414 23.390053 50.7831 27.006859 47.76327 28.840386L37.900098 34.699247 42.942815 47.389665 46.20745 40.67321C47.495916 38.02424 50.221014 36.313917 53.15065 36.313917H61.846155C64.69205 36.313917 67 38.637037 67 41.50162 67 44.366209 64.69205 46.687704 61.846155 46.687704Z" fill="#94080d"/>
</svg>
