<svg xmlns="http://www.w3.org/2000/svg" xmlns:xlink="http://www.w3.org/1999/xlink" version="1.1" width="190.27503pt" height="153.1875pt" viewBox="0 0 190.27503 153.1875">
<path transform="matrix(1,0,0,-1,24.1875,72.5625)" d="M64.5 32.25C64.5 23.69677 61.102247 15.493851 55.0542 9.445801 49.00615 3.397755 40.80323 0 32.25 0 23.696768 0 15.493855 3.397755 9.445807 9.445801 3.397759 15.493851 0 23.69677 0 32.25 0 40.80323 3.397759 49.006147 9.445807 55.05419 15.493855 61.10224 23.696768 64.5 32.25 64.5 40.80323 64.5 49.00615 61.10224 55.0542 55.05419 61.102247 49.006147 64.5 40.80323 64.5 32.25Z" fill="#ec061d"/>
<path transform="matrix(1,0,0,-1,24.1875,72.5625)" d="M32.25 21.5C35.101079 21.5 37.83538 22.632588 39.851396 24.648606 41.867414 26.66462 43 29.398922 43 32.25 43 35.101079 41.867414 37.83538 39.851396 39.851396 37.83538 41.867414 35.101079 43 32.25 43 29.398922 43 26.66462 41.867414 24.648604 39.851396 22.632588 37.83538 21.5 35.101079 21.5 32.25 21.5 29.398922 22.632588 26.66462 24.648604 24.648606 26.66462 22.632588 29.398922 21.5 32.25 21.5ZM32.25 0C36.48513 0 40.67879 .834167 44.59154 2.454884 48.50429 4.075596 52.05951 6.451115 55.0542 9.445801 58.048887 12.440491 60.424406 15.995708 62.045118 19.908459 63.665834 23.821209 64.5 28.01487 64.5 32.25 64.5 36.48513 63.665834 40.67879 62.045118 44.59154 60.424406 48.50429 58.048887 52.0595 55.0542 55.05419 52.05951 58.04888 48.50429 60.4244 44.59154 62.045114 40.67879 63.66583 36.48513 64.5 32.25 64.5 23.696768 64.5 15.493855 61.10224 9.445807 55.05419 3.397759 49.006147 0 40.80323 0 32.25 0 23.69677 3.397759 15.493851 9.445807 9.445801 15.493855 3.397755 23.696768 0 32.25 0Z" fill="#ec061d" fill-rule="evenodd"/>
<path transform="matrix(1,0,0,-1,19.350007,123.625)" d="M37.625005 43C33.348386 43 29.246928 41.301126 26.222905 38.2771 23.19888 35.253076 21.500002 31.151616 21.500002 26.875V10.75C21.500002 7.898922 20.367415 5.164619 18.351399 3.148605 16.335383 1.132587 13.60108 0 10.750003 0 7.898925 0 5.164618 1.132587 3.148602 3.148605 1.132586 5.164619 0 7.898922 0 10.75V26.875C0 36.85377 3.964051 46.423837 11.020107 53.47989 18.076163 60.535947 27.646233 64.5 37.625005 64.5 47.60377 64.5 57.173837 60.535947 64.22989 53.47989 71.28595 46.423837 75.25 36.85377 75.25 26.875V21.5C75.25 18.648922 74.11741 15.914619 72.101398 13.898605 70.08538 11.882587 67.351078 10.75 64.5 10.75 61.648923 10.75 58.91462 11.882587 56.898607 13.898605 54.882589 15.914619 53.75 18.648922 53.75 21.5V26.875C53.75 31.151616 52.051126 35.253076 49.0271 38.2771 46.003076 41.301126 41.90162 43 37.625005 43Z" fill="#ec061d" fill-rule="evenodd"/>
<path transform="matrix(1,0,0,-1,120.9375,72.5625)" d="M0 32.25C0 23.69677 3.397754 15.493851 9.445803 9.445801 15.493851 3.397755 23.696768 0 32.25 0 40.80323 0 49.00615 3.397755 55.0542 9.445801 61.102247 15.493851 64.5 23.69677 64.5 32.25 64.5 40.80323 61.102247 49.006147 55.0542 55.05419 49.00615 61.10224 40.80323 64.5 32.25 64.5 23.696768 64.5 15.493851 61.10224 9.445803 55.05419 3.397754 49.006147 0 40.80323 0 32.25Z" fill="#ec061d"/>
<path transform="matrix(1,0,0,-1,120.9375,72.5625)" d="M32.25 21.5C29.398922 21.5 26.66462 22.632588 24.648604 24.648606 22.632588 26.66462 21.5 29.398922 21.5 32.25 21.5 35.101079 22.632588 37.83538 24.648604 39.851396 26.66462 41.867414 29.398922 43 32.25 43 35.101079 43 37.83539 41.867414 39.851408 39.851396 41.867425 37.83538 43 35.101079 43 32.25 43 29.398922 41.867425 26.66462 39.851408 24.648606 37.83539 22.632588 35.101079 21.5 32.25 21.5ZM32.25 0C28.01487 0 23.821209 .834167 19.908459 2.454884 15.995708 4.075596 12.440492 6.451115 9.445803 9.445801 6.451113 12.440491 4.075596 15.995708 2.454882 19.908459 .834168 23.821209 0 28.01487 0 32.25 0 36.48513 .834168 40.67879 2.454882 44.59154 4.075596 48.50429 6.451113 52.0595 9.445803 55.05419 12.440492 58.04888 15.995708 60.4244 19.908459 62.045114 23.821209 63.66583 28.01487 64.5 32.25 64.5 40.80323 64.5 49.00615 61.10224 55.0542 55.05419 61.102247 49.006147 64.5 40.80323 64.5 32.25 64.5 23.69677 61.102247 15.493851 55.0542 9.445801 49.00615 3.397755 40.80323 0 32.25 0Z" fill="#ec061d" fill-rule="evenodd"/>
<path transform="matrix(1,0,0,-1,115.024997,123.625)" d="M37.625005 43C41.90162 43 46.00308 41.301126 49.027105 38.2771 52.05113 35.253076 53.750017 31.151616 53.750017 26.875V10.75C53.750017 7.898922 54.88259 5.164619 56.89861 3.148605 58.914628 1.132587 61.648939 0 64.500019 0 67.3511 0 70.08539 1.132587 72.1014 3.148605 74.11742 5.164619 75.250019 7.898922 75.250019 10.75V26.875C75.250019 36.85377 71.28595 46.423837 64.2299 53.47989 57.17384 60.535947 47.603776 64.5 37.625005 64.5 27.646233 64.5 18.076169 60.535947 11.02011 53.47989 3.964054 46.423837 0 36.85377 0 26.875V21.5C0 18.648922 1.132588 15.914619 3.148604 13.898605 5.16462 11.882587 7.898923 10.75 10.750001 10.75 13.601079 10.75 16.33538 11.882587 18.351397 13.898605 20.367415 15.914619 21.500002 18.648922 21.500002 21.5V26.875C21.500002 31.151616 23.19888 35.253076 26.222905 38.2771 29.246928 41.301126 33.34839 43 37.625005 43Z" fill="#ec061d" fill-rule="evenodd"/>
<path transform="matrix(1,0,0,-1,67.725009,153.1875)" d="M37.625 43C33.348386 43 29.246926 41.301126 26.2229 38.2771 23.198878 35.253076 21.5 31.151616 21.5 26.875V10.75C21.5 7.898922 20.367413 5.164612 18.351397 3.148594 16.33538 1.132576 13.601077 0 10.75 0 7.898922 0 5.16462 1.132576 3.148604 3.148594 1.132588 5.164612 0 7.898922 0 10.75V26.875C0 36.85377 3.964053 46.423837 11.020109 53.47989 18.076167 60.535947 27.646229 64.5 37.625 64.5 47.60377 64.5 57.173837 60.535947 64.22989 53.47989 71.28595 46.423837 75.25 36.85377 75.25 26.875V10.75C75.25 7.898922 74.11741 5.164612 72.101398 3.148594 70.08538 1.132576 67.351078 0 64.5 0 61.648923 0 58.91462 1.132576 56.898607 3.148594 54.882589 5.164612 53.75 7.898922 53.75 10.75V26.875C53.75 31.151616 52.051126 35.253076 49.0271 38.2771 46.003076 41.301126 41.901617 43 37.625 43Z" fill="#ec061d" fill-rule="evenodd"/>
<path transform="matrix(1,0,0,-1,72.5625,102.125)" d="M64.5 32.25C64.5 23.69677 61.102247 15.493851 55.0542 9.445801 49.00615 3.397755 40.80323 0 32.25 0 23.696768 0 15.493851 3.397755 9.445803 9.445801 3.397754 15.493851 0 23.69677 0 32.25 0 40.80323 3.397754 49.00615 9.445803 55.0542 15.493851 61.102247 23.696768 64.5 32.25 64.5 40.80323 64.5 49.00615 61.102247 55.0542 55.0542 61.102247 49.00615 64.5 40.80323 64.5 32.25Z" fill="#ec061d"/>
<path transform="matrix(1,0,0,-1,72.5625,102.125)" d="M32.25 21.5C35.101079 21.5 37.83538 22.632588 39.851396 24.648606 41.867414 26.66462 43 29.398922 43 32.25 43 35.101079 41.867414 37.83538 39.851396 39.851396 37.83538 41.867414 35.101079 43 32.25 43 29.398922 43 26.66462 41.867414 24.648604 39.851396 22.632588 37.83538 21.5 35.101079 21.5 32.25 21.5 29.398922 22.632588 26.66462 24.648604 24.648606 26.66462 22.632588 29.398922 21.5 32.25 21.5ZM32.25 0C40.80323 0 49.00615 3.397755 55.0542 9.445801 61.102247 15.493851 64.5 23.69677 64.5 32.25 64.5 40.80323 61.102247 49.00615 55.0542 55.0542 49.00615 61.102247 40.80323 64.5 32.25 64.5 23.696768 64.5 15.493851 61.102247 9.445803 55.0542 3.397754 49.00615 0 40.80323 0 32.25 0 23.69677 3.397754 15.493851 9.445803 9.445801 15.493851 3.397755 23.696768 0 32.25 0Z" fill="#ec061d" fill-rule="evenodd"/>
<path transform="matrix(1,0,0,-1,29.5625,123.625)" d="M0 43H53.75V0H0V43ZM96.75 43H150.5V0H96.75V43Z" fill="#ec061d"/>
<path transform="matrix(1,0,0,-1,77.9375,153.1875)" d="M5.375 51.0625H48.375L53.75 0H0L5.375 51.0625Z" fill="#ec061d"/>
<path transform="matrix(1,0,0,-1,5.375,64.5)" d="M32.25 10.75C37.952157 10.75 43.420766 13.015175 47.452798 17.047207 51.48483 21.079239 53.75 26.547844 53.75 32.25 53.75 37.952157 51.48483 43.420766 47.452798 47.452798 43.420766 51.48483 37.952157 53.75 32.25 53.75 26.547846 53.75 21.079236 51.48483 17.047204 47.452798 13.015171 43.420766 10.75 37.952157 10.75 32.25 10.75 26.547844 13.015171 21.079239 17.047204 17.047207 21.079236 13.015175 26.547846 10.75 32.25 10.75ZM32.25 0C36.48513 0 40.67879 .834167 44.59154 2.454884 48.50429 4.075596 52.0595 6.451115 55.05419 9.445801 58.04888 12.440491 60.424406 15.995708 62.045118 19.908459 63.665834 23.821209 64.5 28.01487 64.5 32.25 64.5 36.48513 63.665834 40.67879 62.045118 44.59154 60.424406 48.50429 58.04888 52.0595 55.05419 55.05419 52.0595 58.04888 48.50429 60.4244 44.59154 62.045114 40.67879 63.66583 36.48513 64.5 32.25 64.5 23.696768 64.5 15.493855 61.10224 9.445807 55.05419 3.397759 49.006147 0 40.80323 0 32.25 0 23.69677 3.397759 15.493851 9.445807 9.445801 15.493855 3.397755 23.696768 0 32.25 0Z" fill-rule="evenodd"/>
<path transform="matrix(1,0,0,-1,0,115.56251)" d="M25.3055 62.930505C25.806056 62.431215 26.20319 61.83807 26.47416 61.18506 26.745129 60.53205 26.884606 59.832 26.884606 59.125005 26.884606 58.418004 26.745129 57.717958 26.47416 57.064947 26.20319 56.411935 25.806056 55.818796 25.3055 55.3195L21.672 51.696756C14.679502 44.702318 10.750915 35.217256 10.75 25.327V5.374996C10.75 3.949459 10.183706 2.582306 9.175698 1.574295 8.16769 .566284 6.800539 0 5.375 0 3.949461 0 2.582309 .566284 1.574301 1.574295 .566293 2.582306 0 3.949459 0 5.374996V25.327C.001524 38.0681 5.063097 50.287019 14.071751 59.297L17.6945 62.930505C18.19379 63.43106 18.786929 63.82819 19.439938 64.09916 20.092947 64.37013 20.793002 64.50961 21.5 64.50961 22.206999 64.50961 22.907053 64.37013 23.560063 64.09916 24.213072 63.82819 24.80621 63.43106 25.3055 62.930505ZM152.0695 66.15551C151.56894 65.65621 151.17182 65.06307 150.90085 64.410068 150.62987 63.757055 150.49039 63.057004 150.49039 62.350008 150.49039 61.643007 150.62987 60.942949 150.90085 60.289937 151.17182 59.636926 151.56894 59.043794 152.0695 58.544504L155.703 54.921754C159.16584 51.458795 161.91266 47.347677 163.78665 42.823144 165.66066 38.29861 166.62514 33.449274 166.625 28.552002V5.374996C166.625 3.949459 167.19129 2.582306 168.1993 1.574295 169.2073 .566284 170.57447 0 172 0 173.42554 0 174.7927 .566284 175.8007 1.574295 176.80872 2.582306 177.375 3.949459 177.375 5.374996V28.552002C177.37348 41.2931 172.3119 53.512025 163.30326 62.522005L159.6805 66.15551C159.18122 66.65606 158.58808 67.05319 157.93506 67.324169 157.28205 67.59513 156.582 67.73461 155.875 67.73461 155.168 67.73461 154.46796 67.59513 153.81494 67.324169 153.16193 67.05319 152.56879 66.65606 152.0695 66.15551Z" fill-rule="evenodd"/>
<path transform="matrix(1,0,0,-1,48.375,145.66249)" d="M86 91.91249C80.297847 91.91249 74.82924 94.177669 70.79721 98.2097 66.765178 102.24173 64.5 107.710338 64.5 113.41249 64.5 119.11465 66.765178 124.58325 70.79721 128.6153 74.82924 132.64733 80.297847 134.91249 86 134.91249 91.702159 134.91249 97.17076 132.64733 101.20279 128.6153 105.234828 124.58325 107.5 119.11465 107.5 113.41249 107.5 107.710338 105.234828 102.24173 101.20279 98.2097 97.17076 94.177669 91.702159 91.91249 86 91.91249ZM86 81.16249C81.76487 81.16249 77.57121 81.99666 73.65846 83.61737 69.74571 85.23808 66.19049 87.6136 63.1958 90.60829 60.201116 93.60298 57.825597 97.1582 56.204885 101.07095 54.584169 104.9837 53.75 109.17736 53.75 113.41249 53.75 117.64762 54.584169 121.84128 56.204885 125.75403 57.825597 129.66678 60.201116 133.222 63.1958 136.21669 66.19049 139.21138 69.74571 141.58689 73.65846 143.20761 77.57121 144.82833 81.76487 145.66249 86 145.66249 94.55323 145.66249 102.75615 142.26473 108.8042 136.21669 114.85225 130.16864 118.25 121.96572 118.25 113.41249 118.25 104.85926 114.85225 96.65634 108.8042 90.60829 102.75615 84.56024 94.55323 81.16249 86 81.16249ZM37.625 46.22499C30.497307 46.22499 23.661545 43.393526 18.621506 38.353487 13.581465 33.313447 10.75 26.477684 10.75 19.34999V5.375C10.75 3.949463 10.183706 2.582306 9.175698 1.574295 8.16769 .566284 6.800539 0 5.375 0 3.949461 0 2.58231 .566284 1.574302 1.574295 .566294 2.582306 0 3.949463 0 5.375V19.34999C0 29.328759 3.964053 38.898828 11.020109 45.95488 18.076167 53.01094 27.646229 56.97499 37.625 56.97499 47.60377 56.97499 57.173837 53.01094 64.22989 45.95488 71.28595 38.898828 75.25 29.328759 75.25 19.34999V5.375C75.25 3.949463 74.68371 2.582306 73.675708 1.574295 72.667697 .566284 71.30054 0 69.875 0 68.44946 0 67.082309 .566284 66.074298 1.574295 65.06629 2.582306 64.5 3.949463 64.5 5.375V19.34999C64.5 22.879265 63.80486 26.373986 62.454267 29.634613 61.10367 32.895235 59.12407 35.85791 56.628496 38.353487 54.13292 40.84906 51.170248 42.82866 47.909624 44.179254 44.648996 45.529855 41.154275 46.22499 37.625 46.22499Z" fill-rule="evenodd"/>
<path transform="matrix(1,0,0,-1,53.75,94.0625)" d="M32.25 10.75C37.952157 10.75 43.42076 13.015175 47.452795 17.047207 51.484827 21.079239 53.75 26.547844 53.75 32.25 53.75 37.952157 51.484827 43.42076 47.452795 47.45279 43.42076 51.484827 37.952157 53.75 32.25 53.75 26.547846 53.75 21.07924 51.484827 17.047209 47.45279 13.015176 43.42076 10.75 37.952157 10.75 32.25 10.75 26.547844 13.015176 21.079239 17.047209 17.047207 21.07924 13.015175 26.547846 10.75 32.25 10.75ZM32.25 0C40.80323 0 49.00615 3.397755 55.0542 9.445801 61.102247 15.493851 64.5 23.69677 64.5 32.25 64.5 40.80323 61.102247 49.006147 55.0542 55.05419 49.00615 61.10224 40.80323 64.5 32.25 64.5 23.696768 64.5 15.493855 61.10224 9.445807 55.05419 3.397759 49.006147 0 40.80323 0 32.25 0 23.69677 3.397759 15.493851 9.445807 9.445801 15.493855 3.397755 23.696768 0 32.25 0Z" fill-rule="evenodd"/>
</svg>
